<?xml version="1.0" standalone="no"?>
<!DOCTYPE svg PUBLIC "-//W3C//DTD SVG 20010904//EN"
 "http://www.w3.org/TR/2001/REC-SVG-20010904/DTD/svg10.dtd">
<svg version="1.0" xmlns="http://www.w3.org/2000/svg"
 width="900.000000pt" height="900.000000pt" viewBox="0 0 900.000000 900.000000"
 preserveAspectRatio="xMidYMid meet">
<metadata>
Created by potrace 1.10, written by Peter Selinger 2001-2011
</metadata>
<g transform="translate(0.000000,900.000000) scale(0.100000,-0.100000)"
fill="#000000" stroke="none">
<path d="M3773 8988 c1 -7 -15 -16 -38 -21 -145 -33 -313 -130 -418 -241 -170
-182 -237 -374 -237 -682 0 -94 -4 -165 -10 -169 -5 -3 -341 -6 -747 -5 -762
0 -902 -5 -1003 -40 -240 -81 -410 -271 -469 -523 -20 -84 -21 -117 -21 -627
0 -533 0 -539 22 -597 27 -70 86 -132 153 -162 37 -17 68 -21 144 -21 53 0
102 -4 110 -9 10 -7 15 -60 21 -232 5 -123 13 -312 19 -419 6 -107 18 -346 26
-530 22 -472 43 -921 56 -1155 6 -110 15 -299 19 -420 8 -213 12 -292 45 -920
9 -159 15 -330 15 -380 0 -49 5 -142 10 -205 5 -63 14 -231 20 -374 23 -616
39 -701 168 -896 110 -165 302 -298 502 -346 84 -20 4566 -20 4660 0 259 56
488 257 593 521 45 113 60 248 77 705 5 129 14 323 19 430 10 184 19 372 56
1150 8 179 20 415 26 525 6 110 15 299 19 420 4 121 13 306 19 410 6 105 17
343 26 530 8 187 20 430 26 540 6 110 14 298 19 419 6 168 11 220 21 227 8 5
57 9 110 9 76 0 107 4 144 21 67 30 126 92 153 162 22 58 22 64 22 595 0 512
-1 541 -21 629 -57 249 -229 442 -467 523 -103 35 -240 40 -1005 40 -406 -1
-742 2 -747 5 -6 4 -10 75 -10 169 0 213 -23 330 -93 476 -105 217 -312 384
-552 444 -28 7 -49 18 -48 24 2 9 -169 12 -717 12 -558 0 -719 -3 -717 -12z
m1398 -588 c55 -29 113 -90 138 -145 19 -42 21 -67 21 -216 0 -106 -4 -169
-10 -169 -5 0 -379 0 -830 0 -451 0 -824 0 -830 0 -6 0 -10 63 -10 169 0 149
2 174 21 216 24 54 82 115 136 144 37 20 57 20 681 21 628 0 644 0 683 -20z
m2309 -1107 c39 -13 58 -26 76 -53 l24 -36 -2 -370 -3 -369 -3085 0 -3085 0
-3 369 -2 370 24 36 c49 75 -221 69 3062 69 2734 1 2945 0 2994 -16z m-342
-1405 c6 -9 7 -73 1 -193 -17 -340 -65 -1339 -114 -2387 -8 -178 -20 -411 -26
-518 -6 -107 -14 -294 -19 -415 -5 -121 -13 -312 -19 -425 -18 -342 -40 -806
-46 -965 -3 -82 -11 -175 -17 -205 -17 -84 -66 -151 -137 -189 l-59 -31 -2211
0 -2212 0 -47 24 c-56 29 -85 55 -115 104 -34 54 -46 123 -52 294 -3 84 -12
286 -20 448 -8 162 -22 446 -30 630 -9 184 -22 468 -30 630 -8 162 -22 441
-30 620 -8 179 -22 467 -30 640 -8 173 -22 457 -30 630 -8 173 -20 403 -26
510 -5 107 -14 310 -19 450 -5 140 -12 272 -16 293 -4 23 -1 43 6 52 11 13
345 15 2650 15 2098 0 2640 -3 2648 -12z"/>
<path d="M2975 5311 c-58 -26 -102 -67 -135 -125 l-30 -51 0 -1908 0 -1908 24
-47 c25 -49 56 -82 116 -123 31 -21 46 -24 130 -24 105 0 137 11 198 69 44 41
68 88 81 161 15 82 15 3657 0 3741 -26 141 -136 234 -278 234 -42 0 -80 -7
-106 -19z"/>
<path d="M4376 5310 c-50 -23 -112 -83 -139 -135 l-22 -40 0 -1910 0 -1910 21
-40 c28 -52 61 -86 115 -121 41 -27 51 -29 140 -29 88 0 99 2 139 29 54 36 86
70 114 121 l21 40 0 1910 c0 1842 -1 1911 -19 1945 -28 53 -96 119 -145 141
-57 25 -170 25 -225 -1z"/>
<path d="M5790 5312 c-94 -45 -151 -118 -169 -216 -15 -84 -15 -3659 0 -3741
18 -100 60 -159 149 -210 50 -28 211 -29 255 -1 53 34 96 80 121 128 l24 47 0
1906 c0 1903 0 1905 -20 1946 -28 53 -92 116 -143 140 -54 24 -167 24 -217 1z"/>
</g>
</svg>
